<mxfile host="app.diagrams.net" modified="2022-12-28T09:19:42.960Z" agent="5.0 (Windows NT 10.0; Win64; x64) AppleWebKit/537.36 (KHTML, like Gecko) Chrome/108.0.0.0 Safari/537.36" version="20.7.4" etag="d4cUYJ-p_sJrpVarDbPA" type="github">
  <diagram id="pzWiihSwBrWKD7aNBbNR" name="第 1 页">
    <mxGraphModel dx="1560" dy="2024" grid="1" gridSize="10" guides="1" tooltips="1" connect="1" arrows="1" fold="1" page="1" pageScale="1" pageWidth="827" pageHeight="1169" math="0" shadow="0">
      <root>
        <mxCell id="0" />
        <mxCell id="1" parent="0" />
        <mxCell id="zaoNlFG-oGX_fSC_EzmJ-1" value="Master" style="rounded=1;whiteSpace=wrap;html=1;" vertex="1" parent="1">
          <mxGeometry x="-680" y="-480" width="120" height="60" as="geometry" />
        </mxCell>
        <mxCell id="zaoNlFG-oGX_fSC_EzmJ-10" value="" style="endArrow=classic;html=1;rounded=0;" edge="1" parent="1">
          <mxGeometry width="50" height="50" relative="1" as="geometry">
            <mxPoint x="-560" y="-445" as="sourcePoint" />
            <mxPoint x="-380" y="-445" as="targetPoint" />
          </mxGeometry>
        </mxCell>
        <mxCell id="zaoNlFG-oGX_fSC_EzmJ-11" value="1.0" style="rounded=0;whiteSpace=wrap;html=1;" vertex="1" parent="1">
          <mxGeometry x="-380" y="-470" width="120" height="60" as="geometry" />
        </mxCell>
      </root>
    </mxGraphModel>
  </diagram>
</mxfile>
